<?xml version="1.0" encoding="UTF-8" standalone="no"?>
<!-- Created with Inkscape (http://www.inkscape.org/) -->

<svg
   width="16.25in"
   height="10.25in"
   viewBox="0 0 412.75 260.34999"
   version="1.1"
   id="svg5"
   xml:space="preserve"
   xmlns="http://www.w3.org/2000/svg"
   xmlns:svg="http://www.w3.org/2000/svg"><defs
     id="defs2"><rect
       x="373.43622"
       y="166.07591"
       width="555.89954"
       height="171.34331"
       id="rect279" /><rect
       x="373.43622"
       y="166.07591"
       width="555.89954"
       height="171.34331"
       id="rect279-3" /><rect
       x="373.43622"
       y="166.07591"
       width="555.89954"
       height="171.34331"
       id="rect279-6" /><rect
       x="373.43622"
       y="166.07591"
       width="555.89954"
       height="171.34331"
       id="rect279-7" /><rect
       x="373.43622"
       y="166.07591"
       width="555.89954"
       height="171.34331"
       id="rect279-5" /><rect
       x="373.43622"
       y="166.07591"
       width="555.89954"
       height="171.34331"
       id="rect279-35" /><rect
       x="373.43622"
       y="166.07591"
       width="555.89954"
       height="171.34331"
       id="rect279-62" /><rect
       x="373.43622"
       y="166.07591"
       width="555.89954"
       height="171.34331"
       id="rect279-9" /><rect
       x="-707.92432"
       y="21.020691"
       width="878.19189"
       height="357.32547"
       id="rect4187" /><rect
       x="373.43622"
       y="166.07591"
       width="555.89954"
       height="171.34331"
       id="rect279-1" /><rect
       x="-707.92432"
       y="21.020691"
       width="878.19189"
       height="357.32547"
       id="rect4187-2" /><rect
       x="373.43622"
       y="166.07591"
       width="555.89954"
       height="171.34331"
       id="rect279-70" /><rect
       x="-707.92432"
       y="21.020691"
       width="878.19189"
       height="357.32547"
       id="rect4187-9" /><rect
       x="373.43622"
       y="166.07591"
       width="555.89954"
       height="171.34331"
       id="rect279-36" /><rect
       x="-707.92432"
       y="21.020691"
       width="878.19189"
       height="357.32547"
       id="rect4187-0" /><rect
       x="373.43622"
       y="166.07591"
       width="555.89954"
       height="171.34331"
       id="rect279-626" /><rect
       x="-7.2335143"
       y="-293.38745"
       width="804.37982"
       height="257.94321"
       id="rect437" /><rect
       x="47.252445"
       y="-278.2883"
       width="771.79645"
       height="242.00993"
       id="rect186" /><rect
       x="127.79215"
       y="193.97354"
       width="525.73181"
       height="236.98515"
       id="rect242" /><rect
       x="70.306122"
       y="254.84109"
       width="636.58252"
       height="231.93216"
       id="rect236" /><rect
       x="79.835533"
       y="141.17287"
       width="432.97797"
       height="530.7005"
       id="rect303" /><rect
       x="127.79215"
       y="193.97354"
       width="525.73181"
       height="236.98515"
       id="rect242-2" /><rect
       x="127.79215"
       y="193.97354"
       width="525.73181"
       height="236.98515"
       id="rect242-8" /><rect
       x="76.812103"
       y="291.32816"
       width="474.36868"
       height="232.13716"
       id="rect246" /><rect
       x="127.79215"
       y="193.97354"
       width="477.711"
       height="108.78511"
       id="rect242-9" /><rect
       x="127.79215"
       y="193.97354"
       width="461.008"
       height="265.17682"
       id="rect242-6" /></defs><g
     id="layer1"><text
       xml:space="preserve"
       transform="matrix(0.23478427,0,0,0.23478427,204.57675,-10.11723)"
       id="text240"
       style="font-style:normal;font-variant:normal;font-weight:normal;font-stretch:normal;font-size:13.3333px;line-height:1.25;font-family:Allura;-inkscape-font-specification:'Allura, Normal';font-variant-ligatures:normal;font-variant-caps:normal;font-variant-numeric:normal;font-variant-east-asian:normal;letter-spacing:0px;word-spacing:0px;white-space:pre;shape-inside:url(#rect242-9);display:inline"><tspan
         x="127.79297"
         y="206.10429"
         id="tspan11235">To my parents, who gave me wings to fly.
</tspan><tspan
         x="127.79297"
         y="222.77092"
         id="tspan11237">To my wife, guardian of my castle.
</tspan><tspan
         x="127.79297"
         y="239.43755"
         id="tspan11239">And to my daughter, whose magic lights up our lives.</tspan></text></g></svg>
