<?xml version="1.0" encoding="UTF-8" standalone="no"?>
<!-- Created with Inkscape (http://www.inkscape.org/) -->

<svg
   width="16.25in"
   height="10.25in"
   viewBox="0 0 412.75 260.34999"
   version="1.1"
   id="svg5"
   xml:space="preserve"
   inkscape:version="1.2.2 (b0a8486541, 2022-12-01)"
   sodipodi:docname="pipoca_i_en.svg"
   xmlns:inkscape="http://www.inkscape.org/namespaces/inkscape"
   xmlns:sodipodi="http://sodipodi.sourceforge.net/DTD/sodipodi-0.dtd"
   xmlns:xlink="http://www.w3.org/1999/xlink"
   xmlns="http://www.w3.org/2000/svg"
   xmlns:svg="http://www.w3.org/2000/svg"><sodipodi:namedview
     id="namedview7"
     pagecolor="#ffffff"
     bordercolor="#999999"
     borderopacity="1"
     inkscape:showpageshadow="0"
     inkscape:pageopacity="0"
     inkscape:pagecheckerboard="0"
     inkscape:deskcolor="#d1d1d1"
     inkscape:document-units="mm"
     showgrid="false"
     inkscape:zoom="0.70710678"
     inkscape:cx="797.61645"
     inkscape:cy="497.80317"
     inkscape:window-width="1920"
     inkscape:window-height="1011"
     inkscape:window-x="0"
     inkscape:window-y="0"
     inkscape:window-maximized="1"
     inkscape:current-layer="layer1"
     showguides="true"><inkscape:grid
       type="xygrid"
       id="grid1219"
       originx="0"
       originy="0" /><sodipodi:guide
       position="206.375,143.33131"
       orientation="-1,0"
       id="guide1221"
       inkscape:locked="false"
       inkscape:label=""
       inkscape:color="rgb(0,134,229)" /><sodipodi:guide
       position="3.1749999,84.15457"
       orientation="-1,0"
       id="guide312"
       inkscape:locked="false"
       inkscape:label=""
       inkscape:color="rgb(0,134,229)" /><sodipodi:guide
       position="409.57499,160.23896"
       orientation="-1,0"
       id="guide314"
       inkscape:locked="false"
       inkscape:label=""
       inkscape:color="rgb(0,134,229)" /><sodipodi:guide
       position="3.1749999,257.175"
       orientation="0,1"
       id="guide316"
       inkscape:locked="false"
       inkscape:label=""
       inkscape:color="rgb(0,134,229)" /><sodipodi:guide
       position="421.80117,6.3499999"
       orientation="0,1"
       id="guide318"
       inkscape:locked="false"
       inkscape:label=""
       inkscape:color="rgb(0,134,229)" /><sodipodi:guide
       position="406.39999,160.23896"
       orientation="-1,0"
       id="guide320"
       inkscape:label=""
       inkscape:locked="false"
       inkscape:color="rgb(0,134,229)" /><sodipodi:guide
       position="421.80117,3.1749999"
       orientation="0,1"
       id="guide322"
       inkscape:label=""
       inkscape:locked="false"
       inkscape:color="rgb(0,134,229)" /><sodipodi:guide
       position="3.1749999,254"
       orientation="0,1"
       id="guide324"
       inkscape:label=""
       inkscape:locked="false"
       inkscape:color="rgb(0,134,229)" /><sodipodi:guide
       position="6.3499999,84.15457"
       orientation="-1,0"
       id="guide326"
       inkscape:label=""
       inkscape:locked="false"
       inkscape:color="rgb(0,134,229)" /></sodipodi:namedview><defs
     id="defs2"><rect
       x="373.43622"
       y="166.07591"
       width="555.89954"
       height="171.34331"
       id="rect279" /><rect
       x="373.43622"
       y="166.07591"
       width="555.89954"
       height="171.34331"
       id="rect279-3" /><rect
       x="373.43622"
       y="166.07591"
       width="555.89954"
       height="171.34331"
       id="rect279-6" /><rect
       x="373.43622"
       y="166.07591"
       width="555.89954"
       height="171.34331"
       id="rect279-7" /><rect
       x="373.43622"
       y="166.07591"
       width="555.89954"
       height="171.34331"
       id="rect279-5" /><rect
       x="373.43622"
       y="166.07591"
       width="555.89954"
       height="171.34331"
       id="rect279-35" /><rect
       x="373.43622"
       y="166.07591"
       width="555.89954"
       height="171.34331"
       id="rect279-62" /><rect
       x="373.43622"
       y="166.07591"
       width="555.89954"
       height="171.34331"
       id="rect279-9" /><rect
       x="-707.92432"
       y="21.020691"
       width="878.19189"
       height="357.32547"
       id="rect4187" /><rect
       x="373.43622"
       y="166.07591"
       width="555.89954"
       height="171.34331"
       id="rect279-1" /><rect
       x="-707.92432"
       y="21.020691"
       width="878.19189"
       height="357.32547"
       id="rect4187-2" /><rect
       x="373.43622"
       y="166.07591"
       width="555.89954"
       height="171.34331"
       id="rect279-70" /><rect
       x="-707.92432"
       y="21.020691"
       width="878.19189"
       height="357.32547"
       id="rect4187-9" /><rect
       x="373.43622"
       y="166.07591"
       width="555.89954"
       height="171.34331"
       id="rect279-36" /><rect
       x="-707.92432"
       y="21.020691"
       width="878.19189"
       height="357.32547"
       id="rect4187-0" /><rect
       x="373.43622"
       y="166.07591"
       width="555.89954"
       height="171.34331"
       id="rect279-626" /><rect
       x="-7.2335143"
       y="-293.38745"
       width="804.37982"
       height="257.94321"
       id="rect437" /><rect
       x="47.252445"
       y="-278.2883"
       width="771.79645"
       height="242.00993"
       id="rect186" /><rect
       x="127.79215"
       y="193.97354"
       width="525.73181"
       height="236.98515"
       id="rect242" /><rect
       x="70.306122"
       y="254.84109"
       width="636.58252"
       height="231.93216"
       id="rect236" /><rect
       x="79.835533"
       y="141.17287"
       width="432.97797"
       height="530.7005"
       id="rect303" /><rect
       x="127.79215"
       y="193.97354"
       width="525.73181"
       height="236.98515"
       id="rect242-2" /><rect
       x="127.79215"
       y="193.97354"
       width="525.73181"
       height="236.98515"
       id="rect242-8" /><rect
       x="76.812103"
       y="291.32816"
       width="474.36868"
       height="232.13716"
       id="rect246" /></defs><g
     inkscape:label="Layer 1"
     inkscape:groupmode="layer"
     id="layer1"><g
       id="g346"
       transform="matrix(1.1217861,0,0,1.1217861,226.21565,5.199777)"><text
         xml:space="preserve"
         transform="matrix(0.26458333,0,0,0.26458333,-10.811629,-24.472551)"
         id="text240"
         style="font-style:normal;font-variant:normal;font-weight:normal;font-stretch:normal;font-size:17.3333px;line-height:1.25;font-family:Cantarell;-inkscape-font-specification:'Cantarell, Normal';font-variant-ligatures:normal;font-variant-caps:normal;font-variant-numeric:normal;font-variant-east-asian:normal;letter-spacing:0px;word-spacing:0px;white-space:pre;shape-inside:url(#rect242-8);display:inline"><tspan
           x="127.79297"
           y="209.53818"
           id="tspan10135">Popcorn Goes to School
</tspan><tspan
           x="127.79297"
           y="231.2048"
           id="tspan10137">
</tspan><tspan
           x="127.79297"
           y="252.87143"
           id="tspan10139">Written by Leonardo Araújo 
</tspan><tspan
           x="127.79297"
           y="274.53805"
           id="tspan10141">Illustrations created with the help of Sora and ChatGPT.
</tspan><tspan
           x="127.79297"
           y="296.20468"
           id="tspan10143">
</tspan></text><image
         width="62.23595"
         height="41.490635"
         preserveAspectRatio="none"
         xlink:href="../imagens/pipoca-lupa-transparente.png"
         id="image734"
         x="40.449871"
         y="168.44389" /><text
         xml:space="preserve"
         transform="matrix(0.26458333,0,0,0.26458333,-8.1738965,10.589984)"
         id="text244"
         style="font-style:normal;font-variant:normal;font-weight:normal;font-stretch:normal;font-size:13.3333px;line-height:1.25;font-family:Sans;-inkscape-font-specification:'Sans, Normal';font-variant-ligatures:normal;font-variant-caps:normal;font-variant-numeric:normal;font-variant-east-asian:normal;letter-spacing:0px;word-spacing:0px;white-space:pre;shape-inside:url(#rect246);display:inline"><tspan
           x="76.8125"
           y="303.45976"
           id="tspan10145">This book is licensed under the terms of Creative Commons – Attribution-</tspan><tspan
           x="76.8125"
           y="320.12639"
           id="tspan10147">NonCommercial-NoDerivatives 4.0 International (CC BY-NC-ND 4.0).
</tspan><tspan
           x="76.8125"
           y="336.79302"
           id="tspan10149">You can share this book, as long as you give proper credit, do not use it for </tspan><tspan
           x="76.8125"
           y="353.45964"
           id="tspan10151">commercial purposes and do not modify it.
</tspan><tspan
           x="76.8125"
           y="370.12627"
           id="tspan10153">
</tspan><tspan
           x="76.8125"
           y="386.79289"
           id="tspan10155">For commercial uses (such as print publication or digital sale), contact the </tspan><tspan
           x="76.8125"
           y="403.45952"
           id="tspan10157">author for permission and specific conditions.
</tspan><tspan
           x="76.8125"
           y="420.12615"
           id="tspan10159">
</tspan><tspan
           x="76.8125"
           y="436.79277"
           id="tspan10161">More information about the license at:
</tspan><tspan
           x="76.8125"
           y="453.4594"
           id="tspan10163">
</tspan><tspan
           x="76.8125"
           y="470.12602"
           id="tspan10165">https://creativecommons.org/licenses/by-nc-nd/4.0/</tspan></text><g
         id="g521"
         transform="matrix(0.05127948,0,0,0.05127948,12.177633,138.31791)"><path
           class="st0"
           d="M 560,197.5 H 10 c -4.2,0 -7.5,-3.4 -7.5,-7.5 V 10 C 2.5,5.8 5.9,2.5 10,2.5 h 550 c 4.2,0 7.5,3.4 7.5,7.5 v 180 c 0,4.1 -3.4,7.5 -7.5,7.5 z"
           id="path439"
           style="fill:#abb1aa" /><path
           d="M 560,0 H 10 C 4.5,0 0,4.5 0,10 v 180 c 0,5.5 4.5,10 10,10 h 550 c 5.5,0 10,-4.5 10,-10 V 10 C 570,4.5 565.5,0 560,0 Z M 10,6 h 550 c 2.2,0 4,1.8 4,4 V 140 H 6 V 10 C 6,7.8 7.8,6 10,6 Z"
           id="path441" /><circle
           class="st0"
           cx="98"
           cy="93"
           r="86.5"
           id="circle443"
           style="fill:#abb1aa" /><path
           class="st1"
           d="m 238.8,167.2 c 3.3,-1.6 5,-3.8 5,-6.7 0,-2.9 -1.2,-5.2 -3.5,-6.7 -2.3,-1.6 -5.5,-2.4 -9.6,-2.4 -2.1,0 -5.9,0.1 -11.2,0.3 v 35.4 h 12.1 c 4.3,0 7.8,-0.9 10.5,-2.8 2.7,-1.9 4.1,-4.5 4.1,-7.7 -0.1,-4.7 -2.5,-7.8 -7.4,-9.4 z m -12.3,-10.3 c 1.6,-0.1 2.9,-0.1 4,-0.1 4.1,0 6.2,1.4 6.2,4.1 0,3.1 -2.3,4.6 -6.8,4.6 -1.2,0 -2.3,0 -3.4,-0.1 z m 10.2,23.8 c -1.4,1 -3.7,1.4 -6.8,1.4 -0.9,0 -2,-0.1 -3.4,-0.2 v -11.7 c 1.7,0 2.8,-0.1 3.5,-0.1 3.3,0 5.6,0.5 6.9,1.4 1.3,0.9 2,2.4 2,4.4 -0.1,2.3 -0.8,3.9 -2.2,4.8 z"
           id="path445"
           style="fill:#ffffff" /><polygon
           class="st1"
           points="253.4,151.8 245.9,151.8 259.2,172.7 259.2,187.3 266.2,187.3 266.2,172.7 279.5,151.8 272.1,151.8 262.7,166.9 "
           id="polygon447"
           style="fill:#ffffff" /><polygon
           class="st1"
           points="366.7,152 360.1,152 360.1,173 341.8,152 338.5,152 338.5,186.8 345.1,186.8 345.1,165.2 363.9,187.2 366.7,187.2 "
           id="polygon449"
           style="fill:#ffffff" /><path
           class="st1"
           d="m 398.3,178.4 c -2.1,2.3 -4.9,3.5 -8.6,3.5 -3.2,0 -5.7,-1.1 -7.6,-3.3 -1.9,-2.2 -2.9,-5.1 -2.9,-8.9 0,-3.8 1,-6.8 3.1,-9.2 2.1,-2.4 4.7,-3.6 7.9,-3.6 3.4,0 5.9,0.7 7.4,2.1 l 2.8,-5.1 c -2.7,-1.6 -6.2,-2.4 -10.6,-2.4 -5.2,0 -9.4,1.7 -12.7,5.2 -3.3,3.5 -5,7.8 -5,12.9 0,5.5 1.5,9.9 4.5,13.1 3,3.2 7.2,4.8 12.6,4.8 5.4,0 9.5,-1.3 12.3,-4 z"
           id="path451"
           style="fill:#ffffff" /><polygon
           class="st1"
           points="488.1,151.6 481.4,151.6 481.4,172.9 462.9,151.6 459.5,151.6 459.5,186.8 466.2,186.8 466.2,165 485.2,187.3 488.1,187.3 "
           id="polygon453"
           style="fill:#ffffff" /><path
           class="st1"
           d="m 519.5,155.9 c -3.3,-3 -7.9,-4.5 -13.6,-4.5 -1.4,0 -4.9,0.1 -10.5,0.3 v 35.2 h 8.7 c 13.6,0 20.4,-6.3 20.4,-19 0,-5 -1.7,-9 -5,-12 z m -5.2,21.9 c -2,2.3 -4.7,3.4 -8.3,3.4 -1.3,0 -2.5,0 -3.6,-0.1 v -24 c 1.4,-0.1 2.4,-0.2 3.2,-0.2 7.8,0 11.7,3.8 11.7,11.3 0,4.1 -1,7.3 -3,9.6 z"
           id="path455"
           style="fill:#ffffff" /><circle
           class="st1"
           cx="248"
           cy="70.599998"
           r="50"
           id="circle457"
           style="fill:#ffffff" /><path
           d="m 248,25.6 c 24.8,0 45,20.2 45,45 0,24.8 -20.2,45 -45,45 -24.8,0 -45,-20.2 -45,-45 0,-24.8 20.2,-45 45,-45 m 0,-10 c -30.4,0 -55,24.6 -55,55 0,30.4 24.6,55 55,55 30.4,0 55,-24.6 55,-55 0,-30.4 -24.6,-55 -55,-55 z"
           id="path459" /><circle
           cx="248"
           cy="43"
           r="7.9000001"
           id="circle461" /><path
           d="m 261.2,57.9 c 0,-0.8 0.1,-2.3 -1.1,-3.5 -1.1,-1.1 -2.7,-1.1 -3.5,-1.1 h -17.3 c -0.8,0 -2.3,-0.1 -3.5,1.1 -1.1,1.1 -1.1,2.7 -1.1,3.5 v 21.9 h 5 v 26.4 h 16.4 V 79.8 h 5 c 0.1,0 0.1,-18.9 0.1,-21.9 z"
           id="path463" /><circle
           class="st2"
           cx="98"
           cy="93"
           r="68.5"
           id="circle465"
           style="fill:#ffffff;stroke:#000000;stroke-width:14;stroke-miterlimit:10" /><path
           d="m 78.8,106.3 c -6.9,0 -10.1,-5.7 -10.1,-13.3 0,-7.6 2.7,-13.3 10.1,-13.3 2,0 6,1.1 8.3,6.1 l 10,-5.2 C 92.9,72.9 85.6,69.8 77.2,69.8 c -12.2,0 -22,8.6 -22,23.3 0,14.9 9.2,23.3 22.4,23.3 8.5,0 15.7,-4.7 19.7,-11.7 L 88,100 c -2,4.8 -5.2,6.3 -9.2,6.3 z"
           id="path467" /><path
           d="m 131.4,99.8 c -2.1,5 -5.2,6.5 -9.2,6.5 -6.9,0 -10.1,-5.7 -10.1,-13.3 0,-7.6 2.7,-13.3 10.1,-13.3 2,0 6,1.1 8.3,6.1 l 10,-5.2 C 136.3,72.9 129,69.8 120.6,69.8 c -12.2,0 -22,8.6 -22,23.3 0,14.9 9.2,23.3 22.4,23.3 8.5,0 15.7,-4.7 19.7,-11.7 z"
           id="path469" /><circle
           class="st1"
           cx="492"
           cy="70.599998"
           r="50"
           id="circle471"
           style="fill:#ffffff" /><path
           d="m 492,25.6 c 24.8,0 45,20.2 45,45 0,24.8 -20.2,45 -45,45 -24.8,0 -45,-20.2 -45,-45 0,-24.8 20.2,-45 45,-45 m 0,-10 c -30.4,0 -55,24.6 -55,55 0,30.4 24.6,55 55,55 30.4,0 55,-24.6 55,-55 0,-30.4 -24.6,-55 -55,-55 z"
           id="path473" /><rect
           x="471.39999"
           y="74.300003"
           width="41.200001"
           height="10.3"
           id="rect475" /><rect
           x="471.39999"
           y="55.400002"
           width="41.200001"
           height="10.3"
           id="rect477" /><circle
           class="st1"
           cx="370"
           cy="70.599998"
           r="50"
           id="circle479"
           style="fill:#ffffff" /><path
           d="m 370,25.6 c 24.8,0 45,20.2 45,45 0,24.8 -20.2,45 -45,45 -24.8,0 -45,-20.2 -45,-45 0,-24.8 20.2,-45 45,-45 m 0,-10 c -30.4,0 -55,24.6 -55,55 0,30.4 24.6,55 55,55 30.4,0 55,-24.6 55,-55 0,-30.4 -24.6,-55 -55,-55 z"
           id="path481" /><path
           d="m 420,86.6 -4.5,9.9 -95.5,-43 4.5,-9.9 z"
           id="path483" /><path
           d="m 358.3,81.8 c 3.5,5 14.4,5.3 18.1,3.2 1.4,-0.8 1.7,-3 1.7,-4.5 0,-1 -0.3,-1.9 -0.8,-2.5 -0.6,-0.6 -2,-2.1 -3.7,-2.5 -8.6,-2.2 -14.6,-5 -16.9,-7 -2.9,-2.5 -3.4,-4.2 -3.4,-8.6 0,-4.4 1.3,-8.1 4.1,-10.7 2.9,-2.6 7,-4 12.4,-4 5.2,0 12.5,1.4 16.1,5.6 l -5.9,6.5 c -3.4,-2.8 -5.8,-3.1 -9.9,-3.1 -2.6,0 -3.9,0.4 -5,1.1 -1.1,0.7 -1.6,1.6 -1.6,2.8 0,1 0.5,1.9 1.5,2.6 1,0.7 3.6,1.8 8.8,3.2 5.9,1.6 9.8,3.5 11.9,5.8 2.1,2.3 3.1,5.3 3.1,9.1 0,4.6 -1.6,8.3 -4.8,11.3 -3.2,3 -7.1,5.3 -12.8,5.3 -7.3,0 -17,-2.6 -19.7,-7.3"
           id="path485" /><path
           d="m 366.4,36.5 v 12 h 5.2 v -12 z m 0,56.7 v 10.3 h 5.2 V 93.2 Z"
           id="path487" /></g></g><g
       id="g501"
       transform="matrix(0.16678199,0,0,0.16678199,95.61199,220.42739)"><path
         d="m 20.71,44.56 -6.52,-5.93 c 0,0 -0.27,-2.95 2.04,-3.89 2.63,-1.07 5.16,0.19 5.16,0.19 l 3.99,7.68 z"
         fill="#b40e1c"
         id="path390" /><path
         d="m 106.7,44.76 -5.64,-4.47 3.79,-5.54 c 0,0 1.96,-1.59 5.35,0.1 2.59,1.29 3.23,3.79 2.93,4.56 -0.29,0.77 -6.43,5.35 -6.43,5.35 z"
         fill="#b40e1c"
         id="path392" /><path
         d="M 22.75,43.49 19.6,42.64 c 0,0 -0.36,-1.49 0.32,-2.81 0.71,-1.37 2.1,-1.22 2.1,-1.22 0,0 -3.35,-1.63 -1.89,-5.62 1.46,-3.99 5.93,-3.11 5.93,-3.11 0,0 -0.1,-2.53 1.95,-4.09 2.04,-1.56 3.6,-0.39 3.6,-0.39 0,0 -1.58,-5.05 2.33,-7.39 3.34,-2 5.64,-0.1 5.64,-0.1 0,0 1.35,-3.38 5.05,-3.45 2.77,-0.05 3.61,1.02 3.61,1.02 0,0 0.97,-1.95 2.53,-2.82 1.56,-0.88 2.49,-0.75 2.49,-0.75 0,0 -0.71,-2.42 0.04,-4.4 1.32,-3.5 4.96,-4.28 7.68,-3.6 3.73,0.93 3.27,3.51 3.27,3.51 0,0 1.89,-1.27 3.64,-1.07 1.75,0.19 2.67,1.35 2.67,1.35 0,0 1.22,-3.58 5.3,-3.58 4.09,0 5.25,2.43 5.45,4.28 0.2,1.85 -1.03,4.03 -1.03,4.03 0,0 0.59,0.23 0.77,1.63 0.14,1.06 -0.27,2 -0.27,2 0,0 1.88,-1.48 5.63,0 6.22,2.45 4.92,9.07 4.92,9.07 0,0 1.8,-0.21 3.16,0.37 1.56,0.67 2.28,1.77 2.28,1.77 0,0 0.35,-2.9 3.99,-2.92 3.8,-0.02 6.91,7.1 6.23,9.14 -0.68,2.04 -2.53,2.53 -2.53,2.53 0,0 1.69,0.48 2.32,2.53 0.75,2.42 0.13,4.99 0.13,4.99 0,0 -26.38,16.1 -26.67,16 -0.29,-0.1 -32.98,2.43 -32.98,2.43 z"
         fill="#ffb91f"
         id="path394" /><path
         d="m 34.84,48.47 c 0,-0.21 0.3,-1.08 0.89,-1.46 0.73,-0.47 1.82,-0.52 1.82,-0.52 0,0 -1.2,-0.57 -1.87,-2.45 -0.44,-1.22 0.1,-2.54 0.1,-2.54 0,0 -3.17,0.15 -3.9,-2.25 -0.73,-2.4 0.42,-2.71 0.42,-2.71 0,0 -1.27,-6.81 4.06,-6.93 7.29,-0.16 6.04,9.11 6.04,9.11 0,0 1.04,0 1.67,0.57 0.62,0.57 0.83,1.15 0.83,1.15 0,0 1.36,-2.05 4.58,-1.56 7.6,1.15 4.06,8.59 4.06,8.59 0,0 -1.41,-3.85 -3.85,-4.01 -2.45,-0.16 -5.47,1.51 -5.47,1.51 0,0 4.63,0.57 5.88,3.02 1.25,2.45 1.15,5.78 1.15,5.78 0,0 -9.27,2.71 -9.48,2.4 -0.22,-0.3 -6.93,-7.7 -6.93,-7.7 z"
         fill="#fce193"
         id="path396" /><path
         d="m 40.61,40.35 c -0.67,-0.29 -2.55,1.36 -2.59,2.59 -0.04,1.23 1,2.8 2.24,2.91 1.23,0.11 2.46,-1.16 2.46,-2.39 0,-0.62 -1.28,-2.75 -2.11,-3.11 z"
         fill="#e17a2c"
         id="path398" /><path
         d="m 46.27,26.55 c 0,0 -4.99,-0.72 -4.89,3.4 0.13,5.46 6.28,4.65 6.33,4.94 0.05,0.29 0.3,2.15 0.3,2.15 0,0 2.43,-0.28 4.78,1.11 2.35,1.39 3.36,3.02 3.36,3.02 0,0 0.48,-2.25 1.15,-3.21 0.67,-0.96 1.39,-1.68 1.39,-1.68 0,0 0,-1.2 -0.34,-2.16 -0.24,-0.69 -0.81,-1.05 -0.81,-1.05 0,0 5.4,-2.56 2.68,-6.81 -3.07,-4.79 -7.96,-0.34 -7.96,-0.34 0,0 -1.92,-2.78 -4.31,-2.11 -2.4,0.67 -1.68,2.74 -1.68,2.74 z"
         fill="#fce193"
         id="path400" /><path
         d="m 58.54,44.52 c 0,0 -1.44,-4.94 1.25,-6.33 2.69,-1.39 4.46,0.19 4.55,-0.1 0.09,-0.29 4.27,-4.75 7.86,-4.65 5.32,0.14 6.54,3.52 6.66,3.88 0.59,1.72 -0.19,4.51 -0.19,4.51 0,0 2.01,-3.12 4.89,-2.83 2.88,0.29 3.2,2.59 3.2,2.59 0,0 3.18,1.97 3.03,3.84 -0.14,1.87 -2.16,3.26 -2.16,3.26 l -4.89,4.79 -5.27,-1.82 c 0,0 -0.72,-2.4 -0.72,-3.88 0,-1.49 0.14,-2.68 0.14,-2.68 0,0 -1.44,0.77 -2.44,1.05 -1.01,0.29 -3.12,0.34 -3.12,0.34 0,0 -0.08,-1.21 -2.11,-2.59 -4.45,-3.02 -10.68,0.62 -10.68,0.62 z"
         fill="#fce193"
         id="path402" /><path
         d="m 60.65,51.18 c 0,0 -1.63,-5.92 3.07,-6.04 5.61,-0.14 6.42,4.84 6.62,7.62 0.19,2.78 -7.24,7.05 -7.53,6.9 -0.29,-0.14 -7.25,-4.42 -7.25,-4.42 0,0 -0.53,-1.54 0.64,-2.91 1.22,-1.45 4.45,-1.15 4.45,-1.15 z"
         fill="#fce193"
         id="path404" /><path
         d="m 91.86,48.45 c 0,0 -1.63,-1.34 -1.15,-3.88 0.48,-2.54 2.44,-2.68 2.44,-2.68 0,0 -1.49,-2.3 -0.77,-3.79 0.72,-1.49 1.87,-1.82 5.56,-1.77 3.69,0.05 5.56,1.05 6.76,2.35 1.08,1.16 0.38,4.7 0.38,4.7 0,0 -5.46,6.57 -6.09,6.42 -0.62,-0.15 -7.13,-1.35 -7.13,-1.35 z"
         fill="#fce193"
         id="path406" /><path
         d="m 76.56,31.34 c 0,0 1.92,1.2 2.54,2.11 0.62,0.91 1.44,2.64 1.44,2.64 0,0 0.4,-4.68 2.33,-6.96 2.11,-2.49 4.86,-2.39 4.91,-2.39 0.52,0 1.39,-3.88 -0.62,-5.94 -2.52,-2.58 -6.85,-1.68 -6.81,-1.29 0.04,0.39 1.58,2.25 0.58,6.57 -0.93,3.94 -4.37,5.26 -4.37,5.26 z"
         fill="#fce193"
         id="path408" /><path
         d="m 63.14,32.25 c 0.77,0.39 2.14,-0.9 3.31,-1.44 1.34,-0.62 3.07,-0.86 3.12,-1.53 0.05,-0.67 -1.87,-3.07 -4.65,-1.73 -2.78,1.34 -2.64,4.27 -1.78,4.7 z"
         fill="#fce193"
         id="path410" /><path
         d="m 21.82,34.57 c -0.24,2.44 2.25,3.2 2.25,3.2 0,0 -0.31,2.25 0.58,3.55 0.72,1.05 2.21,2.35 2.83,2.21 0.62,-0.14 2.59,-2.01 2.59,-2.16 0,-0.14 -0.11,-5.51 -1.25,-7.43 -1.58,-2.7 -6.57,-3.7 -7,0.63 z"
         fill="#fce193"
         id="path412" /><path
         d="m 30.55,31.34 c 0.67,0 1.34,-1.53 1.73,-2.11 0.38,-0.58 1.82,-1.53 1.82,-1.53 0,0 -2.21,-1.53 -3.6,-0.14 -1.39,1.38 -0.96,3.78 0.05,3.78 z"
         fill="#fce193"
         id="path414" /><path
         d="m 35.91,26.98 c 0,0 1.34,-0.14 2.11,-0.1 0.77,0.05 2.06,0.29 2.06,0.29 0,0 0.19,-1.25 1.58,-2.16 1.39,-0.91 2.68,-0.62 2.68,-0.62 0,0 0.29,-1.73 1.39,-2.49 1.1,-0.77 1.77,-0.77 1.77,-0.77 0,0 1.02,-2.62 -0.48,-3.6 -4.27,-2.78 -6.46,2.8 -7.19,2.92 -0.54,0.09 -2.42,-1.78 -4.48,-0.34 -3.5,2.46 0.56,6.87 0.56,6.87 z"
         fill="#fce193"
         id="path416" /><path
         d="m 49.43,20.7 c 0,0 1.15,0.29 2.01,0.81 0.86,0.52 2.16,1.44 2.16,1.44 l 6.33,-0.19 c 0,0 1.39,-1.82 3.4,-2.64 1.64,-0.67 3.55,-0.72 3.55,-0.72 0,0 0.18,-4.68 -3.69,-5.9 -4.89,-1.53 -6.52,3.45 -6.52,3.45 0,0 -1.44,-1.62 -3.12,-1.58 -3.73,0.1 -4.12,5.33 -4.12,5.33 z"
         fill="#fce193"
         id="path418" /><path
         d="m 56.57,19.02 c -0.58,0 -3.98,2.92 -4.07,3.21 -0.1,0.29 0.81,0.77 0.91,1.05 0.1,0.29 6.23,-0.38 6.57,-0.62 0.33,-0.24 -2.11,-3.64 -3.41,-3.64 z"
         fill="#e17a2c"
         id="path420" /><path
         d="m 48.91,28.89 c 0.03,0.57 2.83,4.31 3.69,4.46 0.86,0.15 3.7,-3.02 2.88,-3.74 -0.38,-0.34 -3.21,0.05 -3.21,0.05 0,0 -0.05,-2.11 -0.29,-2.44 -0.25,-0.34 -3.12,0.72 -3.07,1.67 z"
         fill="#e17a2c"
         id="path422" /><path
         d="m 55.86,12.5 c 0.73,0.02 1.39,-2.68 2.25,-3.55 0.86,-0.87 2.92,-1.73 2.44,-3.07 -0.48,-1.34 -4.17,-0.96 -5.37,1.01 -1.33,2.19 -0.91,5.56 0.68,5.61 z"
         fill="#fce193"
         id="path424" /><path
         d="m 66.07,11.78 c 0.15,0.66 2.01,1.44 2.3,1.77 0.29,0.34 1.63,1.53 1.63,1.53 0,0 3.07,-0.77 4.89,-0.29 1.82,0.48 2.68,1.77 3.21,1.44 0.53,-0.34 0.24,-1.77 -0.05,-2.25 -0.29,-0.48 -0.86,-1.39 -0.86,-1.39 0,0 2.76,-4.28 -0.1,-4.99 -4.07,-1.01 -4.89,3.12 -5.42,3.21 -0.53,0.09 -2.06,-1.53 -3.74,-1.29 -1.67,0.25 -2.06,1.4 -1.86,2.26 z"
         fill="#fce193"
         id="path426" /><path
         d="m 68.37,24.1 c 0.68,1.51 2.83,1.63 2.83,1.63 0,0 1.05,3.36 3.21,3.64 2.16,0.29 3.58,-1.96 4.03,-3.83 0.58,-2.4 0.59,-7.59 -4.75,-7.53 -4.03,0.05 -5.75,5.13 -5.32,6.09 z"
         fill="#fce193"
         id="path428" /><path
         d="m 89.55,41.21 c 0.67,-0.02 0.22,-3.96 2.34,-5.56 2.29,-1.73 4.08,-1.41 6.43,-1.25 2.44,0.16 4.09,0.92 4.6,0.24 0.64,-0.84 1.03,-6.7 -2.3,-7.19 -1.97,-0.29 -2.49,1.63 -2.49,1.63 0,0 -2.01,-0.43 -3.12,1.58 -0.76,1.39 -0.81,2.3 -1.15,2.4 -0.15,0.04 -5.29,-7.9 -9.3,-3.07 -4.17,5.03 3.45,9.2 3.45,9.2 0,0 0.25,2.07 1.54,2.02 z"
         fill="#fce193"
         id="path430" /><path
         d="m 74.36,18.88 c -0.27,0.18 -0.38,4.84 -0.14,4.89 0.24,0.05 3.26,1.68 3.69,1.25 0.43,-0.43 0.43,-2.64 -0.34,-4.07 -0.48,-0.92 -2.25,-2.7 -3.21,-2.07 z"
         fill="#e17a2c"
         id="path432" /><path
         d="m 67.98,13.03 c -0.04,0.49 0.62,3.07 1.39,3.16 1.28,0.16 3.64,-1.2 3.88,-1.68 0.24,-0.48 -0.19,-1.87 -2.11,-2.35 -1.9,-0.47 -3.11,0.2 -3.16,0.87 z"
         fill="#e17a2c"
         id="path434" /><path
         d="m 68.46,42.22 c 0.67,0.72 2.99,-1.24 3.83,-0.86 0.96,0.43 0,2.92 1.05,3.21 1.05,0.29 3.16,-3.12 2.92,-4.6 -0.1,-0.62 -1.34,-1.44 -2.68,-1.92 -1.34,-0.48 -3.16,-0.81 -3.98,-0.29 -0.82,0.52 -2.34,3.17 -1.14,4.46 z"
         fill="#e17a2c"
         id="path436" /><path
         d="m 96.5,45.67 c 0,0 -0.1,-3.07 0.72,-4.6 0.81,-1.53 2.88,-1.29 3.21,-0.91 0.33,0.38 1.49,3.16 1.49,3.16 l -2.44,4.17 z"
         fill="#e17a2c"
         id="path438" /><path
         d="M 63.35,61.35 53.79,57.61 53.52,57.19 C 53.04,56.44 46.74,55.43 46.74,55.43 L 46.18,55.32 38.33,53.63 38.11,53.25 C 37.62,52.42 31.3,50.17 31.3,50.17 L 25.36,47.77 25.2,47.38 C 24.67,46.11 20.65,43.91 20.56,44.09 L 18.77,43.2 c 0.47,-0.95 1.96,-2.52 4.22,-1.61 1.97,0.79 4.22,3.52 4.71,4.6 l 3.23,1.67 c 0.79,-0.5 2.28,-1 4.32,-0.29 2.96,1.04 3.74,3.33 4.35,4.28 l 6.5,1.4 c 0.69,-0.56 2.15,-1.5 4.1,-1.18 3.41,0.56 4.24,2.53 4.95,3.53 l 7.49,0.64 c 0.75,-1.03 2.66,-3.21 5.63,-3.62 2.78,-0.39 4.81,0.57 5.63,1.53 l 7.16,-2.41 c 0.6,-0.93 2.67,-3.56 5.91,-4.15 3.02,-0.55 5.39,0.98 6.48,1.67 l 4.78,-2.45 c 0.51,-0.86 2.16,-3.54 4.68,-4.31 3.15,-0.95 5.17,1.04 5.26,1.11 l -1.35,1.48 c -0.04,-0.04 -6.61,3.69 -6.63,3.72 l -1.41,2.43 -5.52,0.36 -0.5,-0.4 c -0.02,-0.02 -10.13,1.81 -10.15,1.84 l -0.19,0.35 -9.04,3.04 -0.44,-0.47 c -0.06,-0.06 -9.59,5.39 -9.59,5.39 z"
         fill="#dfdfdf"
         id="path440" /><path
         d="m 107.72,46.58 c -0.23,0.02 -2.11,-2.62 -4.56,-1.6 -2.45,1.03 -4.79,5.24 -4.79,5.24 l -7.63,1.2 c 0,0 -1.03,-2.08 -3.88,-1.28 -2.85,0.8 -5.41,4.3 -5.47,4.07 -0.06,-0.23 -8.4,1.9 -8.4,1.9 0,0 -1.65,-1.84 -4.59,-1.11 -3.04,0.76 -4.69,4.49 -4.69,4.49 l -9.47,-1.88 c 0,0 -1.62,-2.72 -4.07,-3.06 -2.45,-0.34 -4.04,1.26 -4.04,1.26 l -7.07,-1.72 c 0,0 -1.08,-2.96 -4.16,-3.99 -3.08,-1.03 -4.56,0.28 -4.56,0.28 l -4.58,-3.11 c 0,0 -1.35,-2.22 -3.92,-3.42 -2.56,-1.2 -3.3,0.9 -3.3,0.9 l 15.96,67.15 30.56,12.43 30.17,-13.21 c 0.02,0.01 13.18,-64.61 12.49,-64.54 z"
         fill="#ffffff"
         id="path442" /><path
         d="M 20.71,44.56 20.69,44.49 C 20.41,43.18 19.68,40.21 17.95,38.86 15.7,37.11 14.19,38.62 14.19,38.62 l 17.35,72.18 4.24,1.62 z"
         fill="#ed3d23"
         id="path444" /><path
         d="m 31.96,49.98 c 0,0 -0.27,-4.51 -3.83,-5.58 -2.83,-0.85 -2.95,2.06 -2.95,2.06 l 14.07,67.39 5.37,2.16 z"
         fill="#ed3d23"
         id="path446" /><path
         d="m 47.06,55.19 c 0,0 -1.45,-4.85 -5.14,-5.26 -3.69,-0.41 -3.32,2.69 -3.32,2.69 l 9.55,64.86 5.37,2.18 z"
         fill="#ed3d23"
         id="path448" /><path
         d="m 58.79,53.82 c -4.05,-0.51 -4.61,3.56 -4.61,3.56 l 4.19,64.26 6.72,2.7 -1.2,-65.18 c 0,0 -0.85,-4.8 -5.1,-5.34 z"
         fill="#ed3d23"
         id="path450" /><path
         d="m 82.04,54.07 c 0,0 0.21,-5.1 -4.35,-3.81 -4.56,1.28 -5.06,5.55 -5.06,5.55 l -1.14,65.75 5.66,-2.51 z"
         fill="#ed3d23"
         id="path452" /><g
         fill="#ed3d23"
         id="g458"><path
           d="m 98.95,48.6 c 0,0 -0.19,-4 -4.1,-3.19 -4.1,0.84 -4.14,4.97 -4.14,4.97 l -7.19,65.93 5.46,-2.41 z"
           id="path454" /><path
           d="m 109.39,39.02 c -3.36,1.61 -3.65,5.93 -3.65,5.93 l -11.45,66.62 5.37,-2.38 13.51,-69.84 c -0.01,0 -0.84,-1.74 -3.78,-0.33 z"
           id="path456" /></g></g></g></svg>
